<svg xmlns="http://www.w3.org/2000/svg" width="20" height="20" viewBox="0 0 20 20">
  <defs>
    <style>
      .cls-1 {
        fill: #7b7b7b;
        fill-rule: evenodd;
      }
    </style>
  </defs>
  <g id="logout">
    <path class="cls-1" d="M1131.02,11.884V10.91a1.324,1.324,0,0,0-1.34-1.292h-4.41V4.167a1.2,1.2,0,0,0-1.22-1.18h-3.8a1.2,1.2,0,0,0-1.21,1.18V9.618h-4.71a1.318,1.318,0,0,0-1.34,1.294v0.959a1.318,1.318,0,0,0,1.34,1.294h0.14l-0.99,6.253a0.582,0.582,0,0,0,.14.488,0.633,0.633,0,0,0,.48.213h2.29a0.63,0.63,0,0,0,.59-0.393l0.23-.6V19.51a0.618,0.618,0,0,0,.63.609h2.98a0.618,0.618,0,0,0,.63-0.609V19.135l0.23,0.591a0.616,0.616,0,0,0,.58.393h3.27a0.618,0.618,0,0,0,.63-0.609V19.137l0.23,0.589a0.63,0.63,0,0,0,.59.393h3.15a0.649,0.649,0,0,0,.48-0.213,0.62,0.62,0,0,0,.14-0.489l-1-6.254A1.329,1.329,0,0,0,1131.02,11.884Zm-3.61,7.017-1.29-3.3a0.635,0.635,0,0,0-.7-0.383,0.609,0.609,0,0,0-.51.6V18.9h-2.21l-1.3-3.3a0.628,0.628,0,0,0-1.21.216V18.9h-1.72V15.815a0.618,0.618,0,0,0-.52-0.6,0.638,0.638,0,0,0-.7.383l-1.29,3.3h-1.13l0.91-5.737h12.74l0.92,5.737h-1.99Zm2.27-6.954h-15.35a0.074,0.074,0,0,1-.08-0.076V10.912a0.074,0.074,0,0,1,.08-0.076h5.35a0.634,0.634,0,0,0,.5-0.231,0.577,0.577,0,0,0,.11-0.52V4.2l3.73-.037v5.9a0.626,0.626,0,0,0,.1.53,0.647,0.647,0,0,0,.5.239h5.06a0.075,0.075,0,0,1,.08.076V11.87A0.075,0.075,0,0,1,1129.68,11.947Zm-6.67-7.157h-1.73a0.328,0.328,0,0,0-.33.337V5.616a0.338,0.338,0,0,0,.34.337h1.72a0.346,0.346,0,0,0,.35-0.337V5.132h0A0.344,0.344,0,0,0,1123.01,4.79Z" transform="translate(-1112 -2)"/>
  </g>
</svg>
