<svg xmlns="http://www.w3.org/2000/svg" width="20" height="20" viewBox="0 0 20 20">
  <defs>
    <style>
      .cls-1 {
        fill: #3276b1;
        fill-rule: evenodd;
      }
    </style>
  </defs>
  <g id="cross">
    <path class="cls-1" d="M1146.77,5.29l5.23,5.23,5.21-5.208A0.981,0.981,0,0,1,1157.92,5,1.082,1.082,0,0,1,1159,6.076a0.96,0.96,0,0,1-.3.71l-5.26,5.209,5.26,5.262a0.971,0.971,0,0,1,.3.657,1.082,1.082,0,0,1-1.08,1.076,0.972,0.972,0,0,1-.74-0.291l-5.18-5.23-5.22,5.219a0.992,0.992,0,0,1-.7.3,1.082,1.082,0,0,1-1.08-1.076,0.99,0.99,0,0,1,.29-0.71l5.27-5.208-5.27-5.262a1.006,1.006,0,0,1-.29-0.656A1.082,1.082,0,0,1,1146.08,5,0.985,0.985,0,0,1,1146.77,5.29Z" transform="translate(-1142 -2)"/>
  </g>
</svg>
