<svg xmlns="http://www.w3.org/2000/svg" xmlns:xlink="http://www.w3.org/1999/xlink" width="20" height="20" viewBox="0 0 20 20">
  <defs>
    <style>
      .cls-1 {
        filter: url(#filter);
      }

      .cls-2 {
        fill-rule: evenodd;
      }

      .cls-3 {
        font-size: 13.036px;
        fill: #010101;
        font-family: Verdana;
      }
    </style>
    <filter id="filter" filterUnits="userSpaceOnUse">
      <feFlood result="flood" flood-color="#7b7b7b"/>
      <feComposite result="composite" operator="in" in2="SourceGraphic"/>
      <feBlend result="blend" in2="SourceGraphic"/>
    </filter>
  </defs>
  <g id="css">
    <g id="file" class="cls-1">
      <path class="cls-2" d="M938.949,82.269a1.011,1.011,0,0,0-.223-0.332L935,78.283a0.986,0.986,0,0,0-.314-0.209h0A0.96,0.96,0,0,0,934.319,78h-7.148a2.2,2.2,0,0,0-2.181,2.226V93.774A2.2,2.2,0,0,0,927.171,96h9.677a2.2,2.2,0,0,0,2.182-2.226V82.664A1.063,1.063,0,0,0,938.949,82.269ZM938,93.778a1.165,1.165,0,0,1-1.151,1.174h-9.677a1.166,1.166,0,0,1-1.151-1.174V80.23a1.163,1.163,0,0,1,1.151-1.174h6.823v1.7a2.207,2.207,0,0,0,2.181,2.226H938V93.778h0Z" transform="translate(-922 -77)"/>
      <text id="CSS-2" data-name="CSS" class="cls-3" transform="translate(4.966 12.679) scale(0.355 0.345)">CSS</text>
    </g>
  </g>
</svg>
