<svg xmlns="http://www.w3.org/2000/svg" xmlns:xlink="http://www.w3.org/1999/xlink" width="20" height="20" viewBox="0 0 20 20">
  <defs>
    <style>
      .cls-1 {
        filter: url(#filter);
      }

      .cls-2 {
        fill-rule: evenodd;
      }
    </style>
    <filter id="filter" filterUnits="userSpaceOnUse">
      <feFlood result="flood" flood-color="#7b7b7b"/>
      <feComposite result="composite" operator="in" in2="SourceGraphic"/>
      <feBlend result="blend" in2="SourceGraphic"/>
    </filter>
  </defs>
  <g id="dateArr">
    <g class="cls-1">
      <path class="cls-2" d="M1065.91,80h-0.36c-1.48,0-2.53.685-2.53,2.3a10.276,10.276,0,0,0,.14,1.458,10.515,10.515,0,0,1,.14,1.476,1.17,1.17,0,0,1-1.41,1.3v0.9a1.193,1.193,0,0,1,1.41,1.3,9.8,9.8,0,0,1-.14,1.423,10.032,10.032,0,0,0-.14,1.44c0,1.773,1.08,2.406,2.53,2.406h0.36V93.034h-0.31a1.279,1.279,0,0,1-1.38-1.528,7.953,7.953,0,0,1,.13-1.265,8.063,8.063,0,0,0,.12-1.335,1.686,1.686,0,0,0-1.25-1.915V86.957a1.677,1.677,0,0,0,1.25-1.9,8.231,8.231,0,0,0-.12-1.335,7.744,7.744,0,0,1-.13-1.247,1.259,1.259,0,0,1,1.38-1.511h0.31V80" transform="translate(-1062 -77)"/>
      <path id="Shape_27_copy" data-name="Shape 27 copy" class="cls-2" d="M1077.9,80h0.37c1.47,0,2.52.685,2.52,2.3a10.276,10.276,0,0,1-.14,1.458,10.515,10.515,0,0,0-.14,1.476,1.17,1.17,0,0,0,1.41,1.3v0.9a1.193,1.193,0,0,0-1.41,1.3,9.8,9.8,0,0,0,.14,1.423,10.032,10.032,0,0,1,.14,1.44A2.2,2.2,0,0,1,1078.27,94h-0.37V93.034h0.31a1.279,1.279,0,0,0,1.38-1.528,7.918,7.918,0,0,0-.12-1.265,8.038,8.038,0,0,1-.13-1.335,1.692,1.692,0,0,1,1.26-1.915V86.957a1.683,1.683,0,0,1-1.26-1.9,8.219,8.219,0,0,1,.13-1.335,7.709,7.709,0,0,0,.12-1.247,1.259,1.259,0,0,0-1.38-1.511h-0.31V80" transform="translate(-1062 -77)"/>
      <path id="Shape_26_copy" data-name="Shape 26 copy" class="cls-2" d="M1074.57,87.878a0.479,0.479,0,0,1-.49-0.465,0.47,0.47,0,0,1,.48-0.466h0.01A0.466,0.466,0,1,1,1074.57,87.878Zm-2.56,0a0.466,0.466,0,1,1,0-.931h0A0.466,0.466,0,1,1,1072.01,87.878Zm-2.56,0a0.466,0.466,0,1,1-.01-0.931h0.01A0.466,0.466,0,1,1,1069.45,87.878Zm5.12,2.145a0.479,0.479,0,0,1-.49-0.466,0.47,0.47,0,0,1,.48-0.466h0.01A0.466,0.466,0,1,1,1074.57,90.023Zm-2.56,0a0.466,0.466,0,1,1,0-.931h0A0.466,0.466,0,1,1,1072.01,90.023Zm-2.56,0a0.466,0.466,0,1,1-.01-0.931h0.01A0.466,0.466,0,1,1,1069.45,90.023Zm4.88-5.939a0.476,0.476,0,0,1-.48-0.465V81.8a0.485,0.485,0,0,1,.97,0v1.816A0.479,0.479,0,0,1,1074.33,84.083Zm-4.65,0a0.479,0.479,0,0,1-.49-0.465V81.8a0.491,0.491,0,0,1,.98,0v1.816A0.479,0.479,0,0,1,1069.68,84.083Zm4.76,8.59h-4.87a2.931,2.931,0,0,1-3.24-3.074V85.235a2.911,2.911,0,0,1,3.24-3.028h4.88a3.384,3.384,0,0,1,2.39.832,2.954,2.954,0,0,1,.84,2.2v4.4A2.914,2.914,0,0,1,1074.44,92.673Zm-4.87-9.535a1.975,1.975,0,0,0-2.27,2.1V89.6a1.994,1.994,0,0,0,2.27,2.143h4.87a1.969,1.969,0,0,0,2.26-2.1v-4.4a2,2,0,0,0-.55-1.539,2.406,2.406,0,0,0-1.7-.558h-4.88Z" transform="translate(-1062 -77)"/>
      <path class="cls-2" d="M1077.18,85.742h-10.36a0.348,0.348,0,1,1,0-.634h10.36A0.348,0.348,0,1,1,1077.18,85.742Z" transform="translate(-1062 -77)"/>
    </g>
  </g>
</svg>
