<svg xmlns="http://www.w3.org/2000/svg" xmlns:xlink="http://www.w3.org/1999/xlink" width="20" height="20" viewBox="0 0 20 20">
  <defs>
    <style>
      .cls-1 {
        filter: url(#filter);
      }

      .cls-2 {
        fill-rule: evenodd;
      }
    </style>
    <filter id="filter" filterUnits="userSpaceOnUse">
      <feFlood result="flood" flood-color="#7b7b7b"/>
      <feComposite result="composite" operator="in" in2="SourceGraphic"/>
      <feBlend result="blend" in2="SourceGraphic"/>
    </filter>
  </defs>
  <g id="date">
    <g class="cls-1">
      <path id="Shape_26_copy" data-name="Shape 26 copy" class="cls-2" d="M1005.63,88.24a0.675,0.675,0,0,1-.69-0.658,0.666,0.666,0,0,1,.68-0.658h0.01A0.658,0.658,0,1,1,1005.63,88.24Zm-3.61,0a0.675,0.675,0,0,1-.69-0.658,0.666,0.666,0,0,1,.68-0.658h0.01A0.658,0.658,0,1,1,1002.02,88.24Zm-3.624,0a0.658,0.658,0,1,1-.007-1.315H998.4A0.658,0.658,0,1,1,998.4,88.24Zm7.234,3.03a0.675,0.675,0,0,1-.69-0.658,0.666,0.666,0,0,1,.68-0.658h0.01A0.658,0.658,0,1,1,1005.63,91.27Zm-3.61,0a0.675,0.675,0,0,1-.69-0.658,0.666,0.666,0,0,1,.68-0.658h0.01A0.658,0.658,0,1,1,1002.02,91.27Zm-3.624,0a0.658,0.658,0,1,1-.007-1.315H998.4A0.658,0.658,0,1,1,998.4,91.27Zm6.9-8.39a0.675,0.675,0,0,1-.69-0.658V79.657A0.675,0.675,0,0,1,1005.3,79a0.666,0.666,0,0,1,.68.658v2.565A0.666,0.666,0,0,1,1005.3,82.88Zm-6.579,0a0.673,0.673,0,0,1-.687-0.658V79.657a0.688,0.688,0,0,1,1.374,0v2.565A0.673,0.673,0,0,1,998.721,82.88Zm6.729,12.135h-6.888c-2.819,0-4.57-1.664-4.57-4.343V84.507c0-2.638,1.751-4.277,4.57-4.277h6.9a4.762,4.762,0,0,1,3.38,1.175,4.2,4.2,0,0,1,1.18,3.1V90.73C1010.02,93.373,1008.27,95.014,1005.45,95.014Zm-6.888-13.469c-2.061,0-3.2,1.052-3.2,2.962v6.165c0,1.953,1.135,3.027,3.2,3.027h6.888c2.06,0,3.19-1.054,3.19-2.969V84.507a2.85,2.85,0,0,0-.78-2.174,3.386,3.386,0,0,0-2.4-.788h-6.9Z" transform="translate(-992 -77)"/>
      <path class="cls-2" d="M1009.22,85H994.772a0.552,0.552,0,1,1,0-1.006h14.448A0.552,0.552,0,1,1,1009.22,85Z" transform="translate(-992 -77)"/>
    </g>
  </g>
</svg>
