<svg xmlns="http://www.w3.org/2000/svg" width="20" height="20" viewBox="0 0 20 20">
  <defs>
    <style>
      .cls-1 {
        fill: #3276b1;
        fill-rule: evenodd;
      }
    </style>
  </defs>
  <g id="dislike">
    <path class="cls-1" d="M1366.29,6.586a0.761,0.761,0,0,0-.73.6,0.589,0.589,0,0,0-.02.189v5.5a0.8,0.8,0,0,0,.11.411,0.739,0.739,0,0,0,.64.375h2.27a0.771,0.771,0,0,0,.75-0.785v-5.5a0.771,0.771,0,0,0-.75-0.785h-2.27Zm-1.89-.516a2.249,2.249,0,0,1,1.89-1.054h2.27a2.308,2.308,0,0,1,2.26,2.356v5.5a2.308,2.308,0,0,1-2.26,2.356h-2.27a2.208,2.208,0,0,1-1.49-.585,2.8,2.8,0,0,0-.51.423,3.721,3.721,0,0,0-.71,1.031l-1.34,3.188a2.282,2.282,0,0,1-2.75,1.347,2.408,2.408,0,0,1-1.64-2.706l0.38-2.373h-2.93a2.331,2.331,0,0,1-2.22-2.818l0.87-4.517a3.027,3.027,0,0,1,2.24-2.418,14.358,14.358,0,0,1,4.24-.446A19.95,19.95,0,0,1,1364.4,6.07Zm-0.37,1.521a18.651,18.651,0,0,0-3.68-.67,12.934,12.934,0,0,0-3.83.41,1.476,1.476,0,0,0-1.09,1.194l-0.87,4.516a0.777,0.777,0,0,0,.74.939h2.93a1.556,1.556,0,0,1,1.49,1.829l-0.38,2.373a0.833,0.833,0,0,0,.57.937,0.79,0.79,0,0,0,.95-0.467l1.34-3.188a5.009,5.009,0,0,1,1.03-1.521,4.181,4.181,0,0,1,.83-0.674,2.646,2.646,0,0,1-.03-0.4V7.59Z" transform="translate(-1352 -2)"/>
  </g>
</svg>
