<svg xmlns="http://www.w3.org/2000/svg" width="20" height="20" viewBox="0 0 20 20">
  <defs>
    <style>
      .cls-1 {
        fill: #7b7b7b;
        fill-rule: evenodd;
      }
    </style>
  </defs>
  <g id="doc">
    <path class="cls-1" d="M928.71,5h-0.377c-1.524,0-2.6.685-2.6,2.3a10,10,0,0,0,.143,1.458,10.238,10.238,0,0,1,.144,1.476,1.19,1.19,0,0,1-1.453,1.3v0.9a1.214,1.214,0,0,1,1.453,1.3,9.542,9.542,0,0,1-.144,1.424,9.75,9.75,0,0,0-.143,1.44c0,1.774,1.111,2.407,2.6,2.407h0.377V18.034h-0.323a1.294,1.294,0,0,1-1.416-1.529,7.81,7.81,0,0,1,.125-1.264,7.841,7.841,0,0,0,.126-1.336,1.692,1.692,0,0,0-1.291-1.915V11.956a1.683,1.683,0,0,0,1.291-1.9,8.006,8.006,0,0,0-.126-1.335,7.615,7.615,0,0,1-.125-1.247,1.273,1.273,0,0,1,1.416-1.511h0.323V5m6.051,0h-0.376V5.966h0.322a1.272,1.272,0,0,1,1.416,1.511A7.507,7.507,0,0,1,936,8.724a8.115,8.115,0,0,0-.125,1.335,1.683,1.683,0,0,0,1.291,1.9v0.035a1.692,1.692,0,0,0-1.291,1.915A7.946,7.946,0,0,0,936,15.241a7.7,7.7,0,0,1,.125,1.264,1.293,1.293,0,0,1-1.416,1.529h-0.322V19h0.376c1.488,0,2.6-.633,2.6-2.407a9.75,9.75,0,0,0-.143-1.44,9.542,9.542,0,0,1-.144-1.424,1.214,1.214,0,0,1,1.453-1.3v-0.9a1.19,1.19,0,0,1-1.453-1.3,10.238,10.238,0,0,1,.144-1.476,10,10,0,0,0,.143-1.458c0-1.616-1.075-2.3-2.6-2.3m-3.567,6.129a1.074,1.074,0,0,0-1.1,1.135,1.094,1.094,0,1,0,2.187,0,1.061,1.061,0,0,0-1.085-1.135" transform="translate(-922 -2)"/>
  </g>
</svg>
