<svg xmlns="http://www.w3.org/2000/svg" width="20" height="20" viewBox="0 0 20 20">
  <defs>
    <style>
      .cls-1 {
        fill: #7b7b7b;
        fill-rule: evenodd;
      }
    </style>
  </defs>
  <g id="docList">
    <path class="cls-1" d="M995.925,5H995.55c-1.515,0-2.584.686-2.584,2.3a10,10,0,0,0,.142,1.458,10.378,10.378,0,0,1,.142,1.476,1.186,1.186,0,0,1-1.444,1.3v0.9a1.21,1.21,0,0,1,1.444,1.3,9.673,9.673,0,0,1-.142,1.424,9.746,9.746,0,0,0-.142,1.44c0,1.774,1.105,2.406,2.584,2.406h0.375V18.035H995.6a1.29,1.29,0,0,1-1.408-1.529,7.807,7.807,0,0,1,.124-1.264,7.844,7.844,0,0,0,.125-1.336,1.689,1.689,0,0,0-1.284-1.914V11.957a1.681,1.681,0,0,0,1.284-1.9,8.007,8.007,0,0,0-.125-1.335,7.607,7.607,0,0,1-.124-1.247A1.269,1.269,0,0,1,995.6,5.967h0.321V5m12.105,0h-0.37V5.967h0.32a1.271,1.271,0,0,1,1.41,1.511,7.738,7.738,0,0,1-.13,1.247,8.231,8.231,0,0,0-.12,1.335,1.68,1.68,0,0,0,1.28,1.9v0.035a1.687,1.687,0,0,0-1.28,1.914,8.065,8.065,0,0,0,.12,1.336,7.942,7.942,0,0,1,.13,1.264,1.291,1.291,0,0,1-1.41,1.529h-0.32V19h0.37c1.48,0,2.59-.632,2.59-2.406a10.019,10.019,0,0,0-.14-1.44,8.6,8.6,0,0,1-.15-1.424,1.213,1.213,0,0,1,1.45-1.3v-0.9a1.189,1.189,0,0,1-1.45-1.3,9.228,9.228,0,0,1,.15-1.476,10.276,10.276,0,0,0,.14-1.458c0-1.616-1.07-2.3-2.59-2.3m-10.737,6.129a1.072,1.072,0,0,0-1.1,1.135,1.088,1.088,0,1,0,2.174,0,1.058,1.058,0,0,0-1.078-1.135m4.147,0a1.075,1.075,0,0,0-1.1,1.135,1.091,1.091,0,1,0,2.18,0,1.059,1.059,0,0,0-1.08-1.135m4.15,0a1.075,1.075,0,0,0-1.1,1.135,1.086,1.086,0,1,0,2.17,0,1.052,1.052,0,0,0-1.07-1.135" transform="translate(-992 -2)"/>
  </g>
</svg>
