<svg xmlns="http://www.w3.org/2000/svg" width="20" height="20" viewBox="0 0 20 20">
  <defs>
    <style>
      .cls-1 {
        fill: #7b7b7b;
        fill-rule: evenodd;
      }
    </style>
  </defs>
  <g id="flow">
    <path class="cls-1" d="M861.469,3.981h0a1.621,1.621,0,0,0-.8.213l-2.172,1.24a1.585,1.585,0,0,0-.8,1.375V9.292a1.584,1.584,0,0,0,.8,1.375l2.173,1.241a1.62,1.62,0,0,0,.8.213h0a1.62,1.62,0,0,0,.8-0.212l2.174-1.242a1.584,1.584,0,0,0,.8-1.375h-1.234a0.366,0.366,0,0,1-.185.318l-2.173,1.241-0.186.049-0.187-.049L859.11,9.611a0.365,0.365,0,0,1-.186-0.318V6.81a0.366,0.366,0,0,1,.186-0.319l2.173-1.241,0.186-.05,0.185,0.049,2.174,1.241a0.367,0.367,0,0,1,.185.319V9.292h1.234V6.81a1.585,1.585,0,0,0-.8-1.375l-2.174-1.241a1.614,1.614,0,0,0-.8-0.213m-4.734,8.908h0a1.625,1.625,0,0,0-.8.213l-2.172,1.241a1.584,1.584,0,0,0-.8,1.375V18.2a1.585,1.585,0,0,0,.8,1.375l2.174,1.241h0a1.614,1.614,0,0,0,.8.214h0a1.611,1.611,0,0,0,.8-0.214h0l2.173-1.24h0a1.586,1.586,0,0,0,.8-1.375h-1.234a0.367,0.367,0,0,1-.187.32h0l-2.174,1.24h0l-0.184.049-0.186-.049-0.011-.006-2.162-1.234h0a0.367,0.367,0,0,1-.187-0.32V15.718a0.366,0.366,0,0,1,.186-0.319l2.173-1.241,0.186-.049,0.185,0.049,2.174,1.241a0.366,0.366,0,0,1,.185.319V18.2h1.234V15.718a1.585,1.585,0,0,0-.8-1.375L857.537,13.1a1.615,1.615,0,0,0-.8-0.213m9.468,0h0a1.622,1.622,0,0,0-.8.213l-2.172,1.24a1.586,1.586,0,0,0-.8,1.375V18.2a1.587,1.587,0,0,0,.8,1.375h0l2.173,1.24h0a1.613,1.613,0,0,0,.8.214h0a1.611,1.611,0,0,0,.8-0.214l0,0,2.168-1.237a1.584,1.584,0,0,0,.8-1.376h-1.233a0.368,0.368,0,0,1-.187.319l-2.173,1.24h0l-0.184.049-0.185-.049h0l-2.174-1.24h0a0.368,0.368,0,0,1-.187-0.32V15.718a0.367,0.367,0,0,1,.186-0.319l2.173-1.24,0.186-.049,0.184,0.049,2.175,1.241a0.367,0.367,0,0,1,.186.319V18.2h1.233V15.718a1.581,1.581,0,0,0-.8-1.375L867.005,13.1a1.615,1.615,0,0,0-.8-0.213" transform="translate(-852 -2)"/>
  </g>
</svg>
