<svg xmlns="http://www.w3.org/2000/svg" width="20" height="20" viewBox="0 0 20 20">
  <defs>
    <style>
      .cls-1 {
        fill: #7b7b7b;
        fill-rule: evenodd;
      }
    </style>
  </defs>
  <g id="folder">
    <path class="cls-1" d="M796.373,6.315h-4.508a0.741,0.741,0,0,1-.218-0.046l-2.179-1.056a2.375,2.375,0,0,0-1.016-.231h-1.746a3.6,3.6,0,0,0-3.653,3.526V16.5a3.6,3.6,0,0,0,3.654,3.526h9.666a3.6,3.6,0,0,0,3.654-3.526V9.841A3.6,3.6,0,0,0,796.373,6.315ZM784.636,8.508a2.036,2.036,0,0,1,2.071-2h1.761l0.293,0.067,2.19,1.057a2.106,2.106,0,0,0,.915.208h4.507a2.108,2.108,0,0,1,1.453.578,1.56,1.56,0,0,1,.464,1.126c0,0.221,0,.438,0,0.438l-13.655.075V8.508ZM798.444,16.5a2.036,2.036,0,0,1-2.071,2h-9.666a2.036,2.036,0,0,1-2.071-2V11.391l13.808-.075V16.5Z" transform="translate(-782 -2)"/>
  </g>
</svg>
