<svg xmlns="http://www.w3.org/2000/svg" xmlns:xlink="http://www.w3.org/1999/xlink" width="20" height="20" viewBox="0 0 20 20">
  <defs>
    <style>
      .cls-1 {
        filter: url(#filter);
      }

      .cls-2 {
        fill: #7b7b7b;
        fill-rule: evenodd;
      }
    </style>
    <filter id="filter" filterUnits="userSpaceOnUse">
      <feFlood result="flood" flood-color="#7b7b7b"/>
      <feComposite result="composite" operator="in" in2="SourceGraphic"/>
      <feBlend result="blend" in2="SourceGraphic"/>
    </filter>
  </defs>
  <g id="invoke">
    <g class="cls-1">
      <path class="cls-2" d="M1492.59,94.909h-1a2.122,2.122,0,0,1-2.17-2.07,0.7,0.7,0,0,0-.12-0.387,0.872,0.872,0,0,0-.54-0.4,0.894,0.894,0,0,0-.66.085,2.3,2.3,0,0,1-1.67.192,2.129,2.129,0,0,1-1.3-.989l-0.5-.82a2.02,2.02,0,0,1,.79-2.818,0.834,0.834,0,0,0,0-1.47,2.028,2.028,0,0,1-.79-2.824l0.54-.85a2.23,2.23,0,0,1,2.95-.75,0.9,0.9,0,0,0,.42.115,0.879,0.879,0,0,0,.89-0.836,1.993,1.993,0,0,1,.62-1.454,2.219,2.219,0,0,1,1.54-.608h1a2.256,2.256,0,0,1,1.56.627,2.04,2.04,0,0,1,.61,1.5,0.752,0.752,0,0,0,.11.367,0.9,0.9,0,0,0,.54.392,0.924,0.924,0,0,0,.67-0.089,2.241,2.241,0,0,1,2.97.759l0.5,0.823,0.03,0.07a2.023,2.023,0,0,1-.82,2.752,0.782,0.782,0,0,0-.32.307,0.817,0.817,0,0,0-.1.644,0.837,0.837,0,0,0,.42.512,2.079,2.079,0,0,1,1.01,1.257,1.938,1.938,0,0,1-.23,1.571l-0.53.844a2.23,2.23,0,0,1-2.95.746,0.96,0.96,0,0,0-.43-0.115,0.865,0.865,0,0,0-.87.846A2.131,2.131,0,0,1,1492.59,94.909Zm-4.05-4.106a2.2,2.2,0,0,1,1.87,1.034,2.039,2.039,0,0,1,.29,1,0.872,0.872,0,0,0,.89.853h1a0.869,0.869,0,0,0,.89-0.844,2.01,2.01,0,0,1,.63-1.463,2.353,2.353,0,0,1,1.54-.6,2.3,2.3,0,0,1,1.05.277,0.912,0.912,0,0,0,1.21-.308l0.53-.845a0.782,0.782,0,0,0,.09-0.633,0.854,0.854,0,0,0-.41-0.514,2.048,2.048,0,0,1-1.01-1.256,1.972,1.972,0,0,1,.22-1.57,2.051,2.051,0,0,1,.79-0.752,0.833,0.833,0,0,0,.32-1.15l-0.03-.056-0.47-.772a0.911,0.911,0,0,0-1.21-.313,2.293,2.293,0,0,1-1.64.216,2.172,2.172,0,0,1-1.32-.954,1.856,1.856,0,0,1-.29-1,0.861,0.861,0,0,0-.25-0.641,0.925,0.925,0,0,0-.64-0.257h-1a0.908,0.908,0,0,0-.63.248,0.8,0.8,0,0,0-.25.6,2.136,2.136,0,0,1-2.17,2.052,2.169,2.169,0,0,1-1.06-.281,0.921,0.921,0,0,0-1.21.317l-0.54.85a0.832,0.832,0,0,0,.33,1.144,2.018,2.018,0,0,1,0,3.584,0.823,0.823,0,0,0-.32,1.149l0.5,0.829a0.912,0.912,0,0,0,1.22.339A2.244,2.244,0,0,1,1488.54,90.8Zm3.55-1.214a2.624,2.624,0,1,1,2.75-2.621A2.695,2.695,0,0,1,1492.09,89.59Zm0-4.021a1.4,1.4,0,1,0,1.47,1.4A1.438,1.438,0,0,0,1492.09,85.569Z" transform="translate(-1482 -77)"/>
    </g>
  </g>
</svg>
