<svg xmlns="http://www.w3.org/2000/svg" xmlns:xlink="http://www.w3.org/1999/xlink" width="20" height="20" viewBox="0 0 20 20">
  <defs>
    <style>
      .cls-1 {
        filter: url(#filter);
      }

      .cls-2 {
        fill: #84857d;
        fill-rule: evenodd;
      }
    </style>
    <filter id="filter" filterUnits="userSpaceOnUse">
      <feFlood result="flood" flood-color="#7b7b7b"/>
      <feComposite result="composite" operator="in" in2="SourceGraphic"/>
      <feBlend result="blend" in2="SourceGraphic"/>
    </filter>
  </defs>
  <g id="javaObject">
    <g class="cls-1">
      <path class="cls-2" d="M1629.92,91.03s-0.65.376,0.46,0.5a9.316,9.316,0,0,0,1.34.094,9.7,9.7,0,0,0,2.22-.256l-0.07.013a6.2,6.2,0,0,0,.89.439l0.04,0.014c-3.3,1.418-7.48-.082-4.88-0.808h0Zm-0.41-1.85s-0.72.537,0.38,0.651a13.433,13.433,0,0,0,1.61.1,13.793,13.793,0,0,0,3-.329l-0.09.017a1.925,1.925,0,0,0,.68.42l0.01,0C1631.1,91.207,1626.65,90.13,1629.51,89.18Zm3.41-3.139a1.241,1.241,0,0,1-.22,1.783s2.07-1.07,1.12-2.406c-0.89-1.248-1.57-1.868,2.12-4C1635.94,81.413,1630.16,82.858,1632.92,86.042Zm4.37,6.358s0.48,0.394-.53.7c-1.9.579-7.94,0.753-9.62,0.023-0.6-.263.53-0.627,0.89-0.7a2.207,2.207,0,0,1,.54-0.065h0.04c-0.67-.472-4.33.928-1.86,1.328,6.74,1.094,12.29-.493,10.54-1.281h0Zm-7.06-5.136s-3.07.729-1.09,0.994c0.53,0.044,1.16.069,1.78,0.069a23.527,23.527,0,0,0,2.38-.12l-0.1.009c1.27-.107,2.54-0.338,2.54-0.338a5.754,5.754,0,0,0-.79.426l0.02-.013c-3.11.82-9.14,0.439-7.4-.4a5.719,5.719,0,0,1,2.63-.629h0.03v0Zm5.5,3.08c3.17-1.647,1.71-3.23.68-3.017a2.4,2.4,0,0,0-.38.1l0.02,0a0.591,0.591,0,0,1,.27-0.208h0c2.02-.711,3.58,2.1-0.65,3.21a0.812,0.812,0,0,0,.06-0.081h0Zm-1.91-12.38s1.76,1.756-1.66,4.457c-2.74,2.166-.63,3.4,0,4.813-1.6-1.445-2.78-2.716-1.99-3.9,1.16-1.738,4.36-2.58,3.65-5.37h0Zm-3.28,16.844c3.04,0.2,7.71-.108,7.82-1.547,0,0-.21.546-2.51,0.979a24.218,24.218,0,0,1-4.23.36,25.168,25.168,0,0,1-3.6-.258l0.13,0.016a5.129,5.129,0,0,0,2.39.451h0Z" transform="translate(-1622 -77)"/>
    </g>
  </g>
</svg>
