<svg xmlns="http://www.w3.org/2000/svg" xmlns:xlink="http://www.w3.org/1999/xlink" width="20" height="20" viewBox="0 0 20 20">
  <defs>
    <style>
      .cls-1 {
        filter: url(#filter);
      }

      .cls-2 {
        fill: #84857d;
        fill-rule: evenodd;
      }
    </style>
    <filter id="filter" filterUnits="userSpaceOnUse">
      <feFlood result="flood" flood-color="#7b7b7b"/>
      <feComposite result="composite" operator="in" in2="SourceGraphic"/>
      <feBlend result="blend" in2="SourceGraphic"/>
    </filter>
  </defs>
  <g id="javaObjectArr">
    <g class="cls-1">
      <path class="cls-2" d="M1700.41,90s-0.5.292,0.36,0.39a7.158,7.158,0,0,0,1.04.073,7.491,7.491,0,0,0,1.72-.2l-0.05.01a4.28,4.28,0,0,0,.69.341l0.03,0.011c-2.56,1.1-5.81-.064-3.79-0.627h0Zm-0.32-1.436s-0.56.416,0.3,0.5a10.351,10.351,0,0,0,1.25.074,10.535,10.535,0,0,0,2.32-.256l-0.07.013a1.545,1.545,0,0,0,.53.326l0.01,0C1701.33,90.138,1697.87,89.3,1700.09,88.564Zm2.65-2.437a0.963,0.963,0,0,1-.17,1.384s1.61-.831.87-1.868c-0.69-.969-1.22-1.45,1.64-3.109C1705.08,82.534,1700.59,83.656,1702.74,86.128Zm3.39,4.936s0.37,0.306-.4.542c-1.49.449-6.17,0.585-7.47,0.018-0.47-.2.41-0.487,0.68-0.546a1.741,1.741,0,0,1,.42-0.051h0.03c-0.52-.367-3.36.72-1.44,1.031,5.24,0.849,9.54-.383,8.19-0.995h-0.01Zm-5.48-3.988s-2.38.566-.84,0.772c0.41,0.034.89,0.054,1.38,0.054a18.046,18.046,0,0,0,1.84-.094l-0.07.007c0.98-.083,1.97-0.262,1.97-0.262a4.362,4.362,0,0,0-.61.331l0.01-.01c-2.42.637-7.09,0.34-5.74-.311a4.417,4.417,0,0,1,2.04-.488h0.02v0Zm4.27,2.391c2.46-1.279,1.33-2.508.53-2.343a1.673,1.673,0,0,0-.29.08l0.01,0a0.418,0.418,0,0,1,.21-0.161h0c1.57-.552,2.78,1.629-0.51,2.493a0.194,0.194,0,0,0,.05-0.063h0Zm-1.48-9.612s1.36,1.363-1.29,3.46c-2.13,1.682-.49,2.641,0,3.737-1.24-1.122-2.16-2.109-1.54-3.028,0.89-1.349,3.38-2,2.83-4.169h0Zm-2.55,13.078c2.36,0.151,5.99-.084,6.08-1.2,0,0-.17.424-1.95,0.76a18.944,18.944,0,0,1-3.29.28,19.7,19.7,0,0,1-2.8-.2l0.11,0.013a3.948,3.948,0,0,0,1.85.35h0Z" transform="translate(-1692 -77)"/>
      <path class="cls-2" d="M1708.5,79.4a1.1,1.1,0,0,1,1.1,1.1v13a1.1,1.1,0,0,1-1.1,1.1h-13a1.1,1.1,0,0,1-1.1-1.1v-13a1.1,1.1,0,0,1,1.1-1.1h13m0-1.4h-13a2.5,2.5,0,0,0-2.5,2.5v13a2.5,2.5,0,0,0,2.5,2.5h13a2.5,2.5,0,0,0,2.5-2.5v-13a2.5,2.5,0,0,0-2.5-2.5h0Z" transform="translate(-1692 -77)"/>
    </g>
  </g>
</svg>
