<svg xmlns="http://www.w3.org/2000/svg" xmlns:xlink="http://www.w3.org/1999/xlink" width="20" height="20" viewBox="0 0 20 20">
  <defs>
    <style>
      .cls-1 {
        filter: url(#filter);
      }

      .cls-2 {
        fill: #7b7b7b;
        fill-rule: evenodd;
      }
    </style>
    <filter id="filter" filterUnits="userSpaceOnUse">
      <feFlood result="flood" flood-color="#7b7b7b"/>
      <feComposite result="composite" operator="in" in2="SourceGraphic"/>
      <feBlend result="blend" in2="SourceGraphic"/>
    </filter>
  </defs>
  <g id="js">
    <g class="cls-1">
      <path class="cls-2" d="M1773.4,89.336a3.2,3.2,0,0,1-1.75-.324,1.153,1.153,0,0,1-.43-0.822,0.193,0.193,0,0,0-.19-0.178h0c-0.25,0-.51,0-0.76,0a0.175,0.175,0,0,0-.19.151,1.925,1.925,0,0,0,.61,1.5,3.174,3.174,0,0,0,1.79.682,6.43,6.43,0,0,0,2.04-.088,2.548,2.548,0,0,0,1.35-.736,1.941,1.941,0,0,0,.32-1.814,1.537,1.537,0,0,0-.99-0.89c-1.03-.366-2.15-0.338-3.2-0.616a0.586,0.586,0,0,1-.25-1.093,2.022,2.022,0,0,1,1.08-.273,3.268,3.268,0,0,1,1.52.219,1.178,1.178,0,0,1,.55.807,0.192,0.192,0,0,0,.18.192c0.25,0.005.51,0,.76,0a0.189,0.189,0,0,0,.2-0.136,1.99,1.99,0,0,0-.96-1.713,4.646,4.646,0,0,0-2.58-.4h0a2.783,2.783,0,0,0-1.75.711,1.774,1.774,0,0,0-.35,1.84,1.534,1.534,0,0,0,.98.864c1.02,0.375,2.15.255,3.18,0.586a0.673,0.673,0,0,1,.5.4,0.808,0.808,0,0,1-.21.77A2.382,2.382,0,0,1,1773.4,89.336Zm4.68-6.869q-3-1.719-6.01-3.436a1.342,1.342,0,0,0-1.32,0q-2.985,1.711-5.99,3.422a1.255,1.255,0,0,0-.64,1.092v6.892a1.245,1.245,0,0,0,.67,1.1c0.57,0.316,1.13.664,1.71,0.959a2.436,2.436,0,0,0,2.2.061,1.721,1.721,0,0,0,.8-1.563c0.01-2.275,0-4.55.01-6.824a0.182,0.182,0,0,0-.15-0.2l-0.02,0c-0.26,0-.51,0-0.77,0a0.169,0.169,0,0,0-.18.154v6.8a0.775,0.775,0,0,1-.49.719,1.226,1.226,0,0,1-1-.135l-1.59-.911a0.18,0.18,0,0,1-.11-0.191V83.581a0.207,0.207,0,0,1,.12-0.212c1.99-1.134,3.99-2.269,5.97-3.406a0.214,0.214,0,0,1,.24,0l5.97,3.4a0.233,0.233,0,0,1,.13.213V90.4a0.215,0.215,0,0,1-.11.194q-2.94,1.682-5.88,3.358a0.331,0.331,0,0,1-.32.074c-0.51-.294-1.02-0.6-1.53-0.9a0.173,0.173,0,0,0-.19-0.011,3.869,3.869,0,0,1-.71.335,0.664,0.664,0,0,0-.32.163,1.012,1.012,0,0,0,.35.253c0.59,0.351,1.19.7,1.79,1.052a1.3,1.3,0,0,0,1.33.038l6-3.419a1.285,1.285,0,0,0,.67-1.1V83.546a1.239,1.239,0,0,0-.63-1.079h0Z" transform="translate(-1762 -77)"/>
    </g>
  </g>
</svg>
