<svg xmlns="http://www.w3.org/2000/svg" width="22" height="16" viewBox="0 0 22 16">
  <defs>
    <style>
      .cls-1 {
        fill: #7b7b7b;
        fill-rule: evenodd;
      }
    </style>
  </defs>
  <g id="loop">
    <path class="cls-1" d="M661.225,129.464a4.474,4.474,0,0,0-7.886.369,9.567,9.567,0,0,0-.819,2.418,4.323,4.323,0,0,1-2.676,3.284,3.269,3.269,0,0,1-3.277-.5,3.69,3.69,0,0,1-1.377-3.225,3.592,3.592,0,0,1,1.8-2.887,3.335,3.335,0,0,1,2.916-.185l-0.017.006c-0.243.081-.478,0.158-0.714,0.234a0.691,0.691,0,0,0-.412.282,0.587,0.587,0,0,0-.031.667,0.561,0.561,0,0,0,.637.268c0.708-.207,1.444-0.431,2.186-0.666a0.7,0.7,0,0,0,.386-0.875c-0.1-.367-0.2-0.732-0.307-1.1l-0.28-.991c-0.01-.035-0.019-0.071-0.032-0.106a0.637,0.637,0,0,0-.744-0.44,0.692,0.692,0,0,0-.366.842c0.057,0.2.113,0.4,0.169,0.6l0.049,0.174a4.514,4.514,0,0,0-3.845.108,4.763,4.763,0,0,0-2.521,3.635A4.955,4.955,0,0,0,644.93,135,4.562,4.562,0,0,0,648,136.9a4.737,4.737,0,0,0,3.78-1.173,5.636,5.636,0,0,0,1.894-3.352,6.155,6.155,0,0,1,.893-2.29,3.342,3.342,0,0,1,2.811-1.591l0.074,0a3.5,3.5,0,0,1,3.258,2.887,3.608,3.608,0,0,1-2.668,4.3,3.156,3.156,0,0,1-2.568-.443,0.6,0.6,0,0,0-.466-0.118,0.545,0.545,0,0,0-.359.29,0.606,0.606,0,0,0-.07.456,0.714,0.714,0,0,0,.3.4,4.275,4.275,0,0,0,2.4.719,4.912,4.912,0,0,0,.571-0.033,4.716,4.716,0,0,0,3.987-3.583A5.01,5.01,0,0,0,661.225,129.464Z" transform="translate(-642 -123)"/>
  </g>
</svg>
