<svg xmlns="http://www.w3.org/2000/svg" width="22" height="16" viewBox="0 0 22 16">
  <defs>
    <style>
      .cls-1 {
        fill: #7b7b7b;
        fill-rule: evenodd;
      }
    </style>
  </defs>
  <g id="map">
    <path class="cls-1" d="M728.542,133.888l-2.042-2.1a0.61,0.61,0,0,0-.878-0.029,0.652,0.652,0,0,0-.027.9l0.027,0.028,1.422,1.465a5.714,5.714,0,0,1-4.15-1.788,0.6,0.6,0,0,0-.862.037l-0.012.015-0.008.012a0.651,0.651,0,0,0,.046.882,6.84,6.84,0,0,0,4.988,2.118l-1.424,1.464a0.65,0.65,0,0,0-.065.9,0.608,0.608,0,0,0,.875.068,0.644,0.644,0,0,0,.068-0.07l2.042-2.1A1.3,1.3,0,0,0,728.542,133.888Zm-1.5-6.118-1.422,1.462a0.472,0.472,0,0,0-.033.053,0.645,0.645,0,0,0,.086.891,0.6,0.6,0,0,0,.825-0.041l1.059-1.088,0.984-1.012a1.3,1.3,0,0,0,.284-1.34,1.274,1.274,0,0,0-.285-0.465l-2.042-2.1a0.61,0.61,0,0,0-.878-0.037,0.65,0.65,0,0,0-.036.9c0.012,0.014.024,0.026,0.036,0.038l1.424,1.463c-3.062.008-4.741,1.707-6.263,3.494-1.4-1.622-3.054-3.242-5.856-3.468l-0.3-.029a0.63,0.63,0,0,0-.621.638,0.642,0.642,0,0,0,.621.638c0.044,0,.178.021,0.178,0.021,2.418,0.189,3.806,1.589,5.156,3.171-1.342,1.574-2.721,3-5.119,3.166l-0.248.014a0.635,0.635,0,0,0,.077,1.267c0.1,0,.254-0.009.332-0.015,3.116-.247,4.806-2.3,6.313-4.091C722.84,129.494,724.278,127.782,727.044,127.77Z" transform="translate(-710 -123)"/>
  </g>
</svg>
