<svg xmlns="http://www.w3.org/2000/svg" width="20" height="20" viewBox="0 0 20 20">
  <defs>
    <style>
      .cls-1 {
        fill: #7b7b7b;
      }

      .cls-1, .cls-2 {
        fill-rule: evenodd;
      }

      .cls-2 {
        fill: #29a547;
      }
    </style>
  </defs>
  <g id="myPackage">
    <path id="Shape_1_copy_2" data-name="Shape 1 copy 2" class="cls-1" d="M726.458,4h-9.917A3.545,3.545,0,0,0,713,7.542V8.25a2.124,2.124,0,0,0,.708,1.582v7.626A3.547,3.547,0,0,0,717.25,21h8.5a3.547,3.547,0,0,0,3.542-3.542V9.832A2.128,2.128,0,0,0,730,8.25V7.542A3.546,3.546,0,0,0,726.458,4ZM714.417,7.542a2.125,2.125,0,0,1,2.124-2.125h9.917a2.125,2.125,0,0,1,2.125,2.125V8.25a0.708,0.708,0,0,1-.708.708h-12.75a0.708,0.708,0,0,1-.708-0.708V7.542Zm13.458,9.917a2.125,2.125,0,0,1-2.125,2.125h-8.5a2.125,2.125,0,0,1-2.125-2.125V10.375h12.75v7.083Z" transform="translate(-712 -2)"/>
    <path class="cls-2" d="M719.375,13.917h4.25a0.708,0.708,0,0,0,0-1.417h-4.25A0.708,0.708,0,0,0,719.375,13.917Z" transform="translate(-712 -2)"/>
  </g>
</svg>
