<svg xmlns="http://www.w3.org/2000/svg" xmlns:xlink="http://www.w3.org/1999/xlink" width="20" height="20" viewBox="0 0 20 20">
  <defs>
    <style>
      .cls-1 {
        filter: url(#filter);
      }

      .cls-2 {
        fill: #7b7b7b;
        fill-rule: evenodd;
      }
    </style>
    <filter id="filter" filterUnits="userSpaceOnUse">
      <feFlood result="flood" flood-color="#7b7b7b"/>
      <feComposite result="composite" operator="in" in2="SourceGraphic"/>
      <feBlend result="blend" in2="SourceGraphic"/>
    </filter>
  </defs>
  <g id="number">
    <g class="cls-1">
      <path class="cls-2" d="M1839.34,91.066h-1.44V91.018a0.429,0.429,0,0,1,.43-0.433,1.511,1.511,0,0,0,1.45-1.059,1.458,1.458,0,0,0-1.01-1.781,1.428,1.428,0,0,0-1.64.674,0.493,0.493,0,1,0,.86.481h0a0.482,0.482,0,0,1,.68-0.144,0.186,0.186,0,0,1,.1.1,0.757,0.757,0,0,1,.09.433,0.573,0.573,0,0,1-.48.337,1.4,1.4,0,0,0-1.44,1.4v0.53a0.453,0.453,0,0,0,.48.481h1.92A0.481,0.481,0,0,0,1839.34,91.066Zm1.93-6.258h4.81a0.481,0.481,0,0,0,0-.963h-4.81A0.481,0.481,0,0,0,1841.27,84.808Zm-1.93.963h-0.48V82.882a0.48,0.48,0,1,0-.96,0v0.481h-0.48a0.481,0.481,0,0,0,0,.963h0.48v1.444h-0.48a0.481,0.481,0,0,0,0,.963h1.92A0.481,0.481,0,0,0,1839.34,85.771Zm6.74,3.37h-4.81a0.481,0.481,0,0,0,0,.963h4.81A0.481,0.481,0,0,0,1846.08,89.141Z" transform="translate(-1832 -77)"/>
    </g>
  </g>
</svg>
