<svg xmlns="http://www.w3.org/2000/svg" xmlns:xlink="http://www.w3.org/1999/xlink" width="20" height="20" viewBox="0 0 20 20">
  <defs>
    <style>
      .cls-1 {
        filter: url(#filter);
      }

      .cls-2 {
        fill: #7b7b7b;
        fill-rule: evenodd;
      }
    </style>
    <filter id="filter" filterUnits="userSpaceOnUse">
      <feFlood result="flood" flood-color="#7b7b7b"/>
      <feComposite result="composite" operator="in" in2="SourceGraphic"/>
      <feBlend result="blend" in2="SourceGraphic"/>
    </filter>
  </defs>
  <g id="properties">
    <g class="cls-1">
      <path class="cls-2" d="M1976.56,80.218h2.96a0.593,0.593,0,0,0,.57-0.56,0.6,0.6,0,0,0-.57-0.626h-2.99a0.6,0.6,0,0,0-.57.626,0.59,0.59,0,0,0,.2.41A0.611,0.611,0,0,0,1976.56,80.218Zm0.79,11.988c-0.01-.018-0.03-0.035-0.04-0.051a0.63,0.63,0,0,0-.87,0,0.56,0.56,0,0,0-.18.419,0.575,0.575,0,0,0,.17.414l1.16,1.263,0.09,0.09h0.02a0.6,0.6,0,0,0,.34.106l0.05,0a0.632,0.632,0,0,0,.42-0.2l1.17-1.3a0.584,0.584,0,0,0-.06-0.8,0.63,0.63,0,0,0-.42-0.159h-0.02a0.622,0.622,0,0,0-.43.192l-0.08.094V82.738l0.08,0.1a0.628,0.628,0,0,0,.83.057,0.59,0.59,0,0,0,.23-0.4,0.572,0.572,0,0,0-.13-0.434l-0.08-.08h-0.01l-1.08-1.219a0.63,0.63,0,0,0-.87-0.055l-1.22,1.314a0.59,0.59,0,0,0,.05.793,0.611,0.611,0,0,0,.43.172h0a0.61,0.61,0,0,0,.44-0.183l0.09-.1v9.586Zm2.16,2.531h-2.92a0.595,0.595,0,1,0,0,1.189h2.92A0.595,0.595,0,1,0,1979.51,94.737Zm9.2-15.59a0.576,0.576,0,0,0-.38-0.147h-5.62a0.553,0.553,0,0,0-.39.16,0.5,0.5,0,0,0-.15.363V95.479a0.521,0.521,0,0,0,.17.375,0.552,0.552,0,0,0,.37.147h5.62a0.568,0.568,0,0,0,.39-0.162,0.5,0.5,0,0,0,.15-0.362V79.525A0.527,0.527,0,0,0,1988.71,79.147Zm-0.87,4.043V85.27h-1.47v1.416h1.47v1.858h-2.67v1.418h2.67v2.086h-1.47v1.41h1.47V95h-4.64V80h4.64v1.773h-2.67v1.417h2.67Z" transform="translate(-1972 -77)"/>
    </g>
  </g>
</svg>
