<svg xmlns="http://www.w3.org/2000/svg" xmlns:xlink="http://www.w3.org/1999/xlink" width="20" height="20" viewBox="0 0 20 20">
  <defs>
    <style>
      .cls-1 {
        filter: url(#filter);
      }

      .cls-2 {
        fill: #7b7b7b;
        fill-rule: evenodd;
      }
    </style>
    <filter id="filter" filterUnits="userSpaceOnUse">
      <feFlood result="flood" flood-color="#7b7b7b"/>
      <feComposite result="composite" operator="in" in2="SourceGraphic"/>
      <feBlend result="blend" in2="SourceGraphic"/>
    </filter>
  </defs>
  <g id="service">
    <g class="cls-1">
      <path class="cls-2" d="M2194.58,88.118a3.224,3.224,0,0,0-2.33-3.806,3.182,3.182,0,0,0-1.9.082,0.55,0.55,0,0,0-.33.3,0.581,0.581,0,0,0-.03.448,0.647,0.647,0,0,0,.14.219l0.74,0.736-0.77.768-0.74-.734a0.587,0.587,0,0,0-.83,0,0.649,0.649,0,0,0-.14.217,3.234,3.234,0,0,0,.13,2.462,3.163,3.163,0,0,0,1.82,1.654,3.2,3.2,0,0,0,1.78.113l2.93,3.308a2,2,0,0,0,1.45.676h0.06a1.968,1.968,0,0,0,1.41-.588,1.994,1.994,0,0,0,.59-1.42,2.033,2.033,0,0,0-.67-1.5Zm2.6,4.984-0.04.042a0.736,0.736,0,0,1-.61.242,0.824,0.824,0,0,1-.6-0.28l-3.18-3.584a0.585,0.585,0,0,0-.44-0.2,0.564,0.564,0,0,0-.19.034,2.047,2.047,0,0,1-2.62-1.232,2.631,2.631,0,0,1-.08-0.276l0.27,0.263a0.59,0.59,0,0,0,.82,0l1.6-1.6a0.591,0.591,0,0,0,0-.83l-0.26-.258a2.052,2.052,0,0,1,1.63,1.884,2.227,2.227,0,0,1-.12.809,0.583,0.583,0,0,0,.16.635l3.59,3.178A0.837,0.837,0,0,1,2197.18,93.1Zm1.5-7.7h0a0.156,0.156,0,0,1-.15-0.1,7.349,7.349,0,0,0-.5-1.218,0.165,0.165,0,0,1,.04-0.195,1.325,1.325,0,0,0-.01-1.855l-1.1-1.1a1.342,1.342,0,0,0-1.86.005,0.159,0.159,0,0,1-.18.034,7.153,7.153,0,0,0-1.22-.507,0.167,0.167,0,0,1-.11-0.152A1.318,1.318,0,0,0,2192.28,79h-1.56a1.312,1.312,0,0,0-.93.391,1.279,1.279,0,0,0-.38.946,0.136,0.136,0,0,1-.09.127,7.09,7.09,0,0,0-1.23.51,0.16,0.16,0,0,1-.19-0.038,1.342,1.342,0,0,0-1.86,0l-1.1,1.1a1.331,1.331,0,0,0,0,1.867,0.152,0.152,0,0,1,.04.177,6.894,6.894,0,0,0-.51,1.218,0.154,0.154,0,0,1-.15.106h0a1.32,1.32,0,0,0-1.32,1.317v1.553a1.321,1.321,0,0,0,1.32,1.318,0.138,0.138,0,0,1,.15.1,7.349,7.349,0,0,0,.5,1.218,0.15,0.15,0,0,1-.04.194,1.325,1.325,0,0,0,.01,1.855l1.1,1.1a1.339,1.339,0,0,0,1.86-.005,0.167,0.167,0,0,1,.18-0.033,7.239,7.239,0,0,0,1.22.506,0.167,0.167,0,0,1,.11.152A1.317,1.317,0,0,0,2190.72,96h1.56a1.317,1.317,0,0,0,1.31-1.32,0.164,0.164,0,0,1,.11-0.148,8,8,0,0,0,.83-0.326,0.232,0.232,0,0,0,.12-0.148,0.237,0.237,0,0,0-.05-0.182l-0.52-.589a0.215,0.215,0,0,0-.24-0.055c-0.16.067-.33,0.128-0.5,0.18a1.315,1.315,0,0,0-.92,1.27,0.141,0.141,0,0,1-.14.145h-1.56a0.141,0.141,0,0,1-.14-0.142,1.316,1.316,0,0,0-.92-1.273,6.077,6.077,0,0,1-1.03-.426,1.357,1.357,0,0,0-1.55.241,0.157,0.157,0,0,1-.21,0l-1.1-1.1a0.14,0.14,0,0,1,.01-0.212,1.318,1.318,0,0,0,.23-1.55,6.148,6.148,0,0,1-.42-1.026,1.319,1.319,0,0,0-1.26-.923,0.157,0.157,0,0,1-.16-0.144V86.725a0.154,0.154,0,0,1,.16-0.144,1.319,1.319,0,0,0,1.26-.924,5.482,5.482,0,0,1,.43-1.027,1.332,1.332,0,0,0-.25-1.555,0.14,0.14,0,0,1,0-.206l1.1-1.095a0.144,0.144,0,0,1,.2,0,1.322,1.322,0,0,0,1.56.245,6.292,6.292,0,0,1,1.04-.431,1.308,1.308,0,0,0,.91-1.264,0.14,0.14,0,0,1,.14-0.144h1.56a0.14,0.14,0,0,1,.14.141,1.316,1.316,0,0,0,.92,1.273,6.077,6.077,0,0,1,1.03.426,1.306,1.306,0,0,0,1.55-.241,0.155,0.155,0,0,1,.21,0l1.1,1.1a0.141,0.141,0,0,1-.01.213,1.335,1.335,0,0,0-.24,1.549,5.539,5.539,0,0,1,.43,1.027,1.32,1.32,0,0,0,1.26.924,0.151,0.151,0,0,1,.16.143v1.55a0.153,0.153,0,0,1-.16.148h-0.01a1.293,1.293,0,0,0-1.24.91c-0.06.172-.12,0.342-0.19,0.51a0.21,0.21,0,0,0,.06.235l0.59,0.521a0.194,0.194,0,0,0,.18.048,0.191,0.191,0,0,0,.14-0.117,6.845,6.845,0,0,0,.33-0.842,0.147,0.147,0,0,1,.13-0.092h0.02a1.321,1.321,0,0,0,1.32-1.318V86.724A1.32,1.32,0,0,0,2198.68,85.406Z" transform="translate(-2182 -77)"/>
    </g>
  </g>
</svg>
