<svg xmlns="http://www.w3.org/2000/svg" width="20" height="20" viewBox="0 0 20 20">
  <defs>
    <style>
      .cls-1 {
        fill: #3276b1;
        fill-rule: evenodd;
      }
    </style>
  </defs>
  <g id="shuffle">
    <path class="cls-1" d="M1226.08,9.132c-0.87,0-3.05,2.172-4.65,3.739-2.4,2.339-4.68,4.616-6.51,4.616h-1.12a0.835,0.835,0,0,1,0-1.671h1.12c1.16,0,3.49-2.339,5.35-4.156,2.28-2.214,4.25-4.2,5.81-4.2h1.08l-1.14-1.107a0.79,0.79,0,0,1,0-1.149,0.82,0.82,0,0,1,1.18,0l2.55,2.569a0.812,0.812,0,0,1,.25.585,0.748,0.748,0,0,1-.25.585l-2.57,2.569a0.821,0.821,0,0,1-1.16-.021,0.84,0.84,0,0,1,0-1.191l1.14-1.169h-1.08Zm1.1,4.3a0.82,0.82,0,0,0-1.18,0,0.865,0.865,0,0,0,0,1.211l1.14,1.17h-1.08c-0.68,0-1.83-1.023-2.95-2.068a0.839,0.839,0,0,0-1.18.021,0.885,0.885,0,0,0,.04,1.211c1.75,1.608,2.91,2.506,4.11,2.506h1.08l-1.14,1.107a0.815,0.815,0,0,0,0,1.17,0.779,0.779,0,0,0,.58.23,0.817,0.817,0,0,0,.58-0.251l2.55-2.569a0.812,0.812,0,0,0,.25-0.585,0.748,0.748,0,0,0-.25-0.585Zm-13.38-4.3h1.12c0.87,0,2.18,1.128,3.22,2.068a0.821,0.821,0,0,0,1.18-.042,0.866,0.866,0,0,0-.06-1.211c-1.62-1.483-2.99-2.506-4.34-2.506h-1.12a0.839,0.839,0,0,0-.83.835A0.858,0.858,0,0,0,1213.8,9.132Z" transform="translate(-1212 -2)"/>
  </g>
</svg>
