<svg xmlns="http://www.w3.org/2000/svg" xmlns:xlink="http://www.w3.org/1999/xlink" width="20" height="20" viewBox="0 0 20 20">
  <defs>
    <style>
      .cls-1 {
        filter: url(#filter);
      }

      .cls-2 {
        fill: #7b7b7b;
      }

      .cls-2, .cls-3 {
        fill-rule: evenodd;
      }

      .cls-3 {
        fill: #84857d;
      }
    </style>
    <filter id="filter" filterUnits="userSpaceOnUse">
      <feFlood result="flood" flood-color="#7b7b7b"/>
      <feComposite result="composite" operator="in" in2="SourceGraphic"/>
      <feBlend result="blend" in2="SourceGraphic"/>
    </filter>
  </defs>
  <g id="textArr">
    <g class="cls-1">
      <path class="cls-2" d="M2406.17,82.992h-8.54a0.532,0.532,0,0,0-.53.53v1.591a0.535,0.535,0,0,0,1.07,0V84.053h3.2v6.894h-1.07a0.53,0.53,0,0,0,0,1.061h3.2a0.53,0.53,0,1,0,0-1.061h-1.06V84.053h3.2v1.061a0.535,0.535,0,0,0,1.07,0V83.523A0.534,0.534,0,0,0,2406.17,82.992Z" transform="translate(-2392 -77)"/>
      <path class="cls-3" d="M2408.5,79.4a1.1,1.1,0,0,1,1.1,1.1v13a1.1,1.1,0,0,1-1.1,1.1h-13a1.1,1.1,0,0,1-1.1-1.1v-13a1.1,1.1,0,0,1,1.1-1.1h13m0-1.4h-13a2.5,2.5,0,0,0-2.5,2.5v13a2.5,2.5,0,0,0,2.5,2.5h13a2.5,2.5,0,0,0,2.5-2.5v-13a2.5,2.5,0,0,0-2.5-2.5h0Z" transform="translate(-2392 -77)"/>
    </g>
  </g>
</svg>
