<svg xmlns="http://www.w3.org/2000/svg" xmlns:xlink="http://www.w3.org/1999/xlink" width="20" height="20" viewBox="0 0 20 20">
  <defs>
    <style>
      .cls-1 {
        filter: url(#filter);
      }

      .cls-2 {
        fill: #7b7b7b;
        fill-rule: evenodd;
      }
    </style>
    <filter id="filter" filterUnits="userSpaceOnUse">
      <feFlood result="flood" flood-color="#7b7b7b"/>
      <feComposite result="composite" operator="in" in2="SourceGraphic"/>
      <feBlend result="blend" in2="SourceGraphic"/>
    </filter>
  </defs>
  <g id="try-catch">
    <g class="cls-1">
      <path class="cls-2" d="M2474.86,79.04a6.326,6.326,0,0,0-4.07,1.312,7.642,7.642,0,0,0-1.65-.176c-2.85,0-5.14,1.5-5.14,3.409V91.54c0,1.909,2.29,3.409,5.14,3.409a6.266,6.266,0,0,0,4.09-1.324,7.313,7.313,0,0,0,1.63.188c2.88,0,5.14-1.5,5.14-3.409V82.449C2480,80.54,2477.74,79.04,2474.86,79.04Zm4,7.386c0,1.233-1.84,2.273-4,2.273h-0.58V85.858h0.58a6.425,6.425,0,0,0,4-1.244v1.813Zm-13.72-.676a7.051,7.051,0,0,0,8,0v1.813c0,1.233-1.83,2.273-4,2.273s-4-1.04-4-2.273V85.75Zm9.72-5.574c2.16,0,4,1.04,4,2.273s-1.84,2.273-4,2.273h-0.58V83.585a3.266,3.266,0,0,0-2.14-2.784A5.881,5.881,0,0,1,2474.86,80.176Zm-5.72,1.136c2.17,0,4,1.04,4,2.273s-1.83,2.273-4,2.273-4-1.04-4-2.273S2466.98,81.313,2469.14,81.313Zm-4,10.227V89.728a7.051,7.051,0,0,0,8,0V91.54c0,1.233-1.83,2.273-4,2.273S2465.14,92.773,2465.14,91.54Zm9.72,1.136a6.882,6.882,0,0,1-.84-0.051,2.406,2.406,0,0,0,.26-1.085v-1.7h0.58a6.425,6.425,0,0,0,4-1.244V90.4C2478.86,91.637,2477.02,92.677,2474.86,92.677Z" transform="translate(-2462 -77)"/>
    </g>
  </g>
</svg>
