<svg xmlns="http://www.w3.org/2000/svg" xmlns:xlink="http://www.w3.org/1999/xlink" width="20" height="20" viewBox="0 0 20 20">
  <defs>
    <style>
      .cls-1 {
        filter: url(#filter);
      }

      .cls-2 {
        fill: #7b7b7b;
        fill-rule: evenodd;
      }
    </style>
    <filter id="filter" filterUnits="userSpaceOnUse">
      <feFlood result="flood" flood-color="#7b7b7b"/>
      <feComposite result="composite" operator="in" in2="SourceGraphic"/>
      <feBlend result="blend" in2="SourceGraphic"/>
    </filter>
  </defs>
  <g id="ui">
    <g class="cls-1">
      <path class="cls-2" d="M2548.79,77.924h-5.33a0.619,0.619,0,0,0-.63.61V95.363a0.619,0.619,0,0,0,.63.61h5.33a0.628,0.628,0,0,0,.64-0.61V78.534A0.628,0.628,0,0,0,2548.79,77.924Zm-4.69,15.122h1.52V91.826h-1.52V90.851h1.52V89.631h-1.52V88.656h1.52v-1.22h-1.52V86.461h1.52v-1.22h-1.52V84.265h1.52V83.046h-1.52V82.07h1.52V80.851h-1.52V79.143h4.06v15.61h-4.06V93.046Zm-6.2-14.119a0.684,0.684,0,0,0-1.05,0l-2.29,3.293a0.581,0.581,0,0,0-.1.338v10.61a2.112,2.112,0,0,0,2.15,2.073h1.53a2.118,2.118,0,0,0,2.15-2.073V82.558a0.581,0.581,0,0,0-.1-0.338Zm0.24,15.094h-1.53a0.874,0.874,0,0,1-.89-0.854v-0.61h3.3v0.61A0.871,0.871,0,0,1,2538.14,94.021Zm0.88-11.1a0.492,0.492,0,0,1-.5.488,0.5,0.5,0,0,1-.51-0.488,0.628,0.628,0,0,0-.64-0.61,0.619,0.619,0,0,0-.63.61,0.511,0.511,0,0,1-1.02,0V82.743l1.65-2.378,1.65,2.378v0.181Zm-2.79,1.707a1.837,1.837,0,0,0,.64-0.118v7.069h-1.15V84.552A1.871,1.871,0,0,0,2536.23,84.631Zm1.65,6.951V84.514a1.837,1.837,0,0,0,.64.118,1.8,1.8,0,0,0,.5-0.08v7.031h-1.14Z" transform="translate(-2532 -77)"/>
    </g>
  </g>
</svg>
