<svg xmlns="http://www.w3.org/2000/svg" width="320" height="96" viewBox="0 0 320 96">
  <defs>
    <style>
      .cls-1 {
        fill: #716957;
        fill-rule: evenodd;
      }
    </style>
  </defs>
  <path class="cls-1" d="M17.828,52.846a0.4,0.4,0,0,0,0-.574L14,48.5l3.83-3.774a0.4,0.4,0,0,0,0-.574,0.417,0.417,0,0,0-.583,0L13.124,48.21a0.4,0.4,0,0,0,0,.574l4.121,4.061A0.416,0.416,0,0,0,17.828,52.846Z"/>
  <path class="cls-1" d="M45.149,14.749L49.21,18.87a0.4,0.4,0,0,0,.574,0l4.061-4.121a0.416,0.416,0,0,0,0-.583,0.4,0.4,0,0,0-.574,0L49.5,18l-3.774-3.829a0.4,0.4,0,0,0-.574,0A0.417,0.417,0,0,0,45.149,14.749Z"/>
  <path id="Shape_3_copy" data-name="Shape 3 copy" class="cls-1" d="M45.149,45.749L49.21,49.87a0.4,0.4,0,0,0,.574,0l4.061-4.121a0.416,0.416,0,0,0,0-.583,0.4,0.4,0,0,0-.574,0L49.5,49l-3.774-3.83a0.4,0.4,0,0,0-.574,0A0.417,0.417,0,0,0,45.149,45.749Z"/>
  <path class="cls-1" d="M14.75,19.848l4.121-4.061a0.4,0.4,0,0,0,0-.574L14.75,11.151a0.416,0.416,0,0,0-.583,0,0.4,0.4,0,0,0,0,.574L18,15.5l-3.829,3.774a0.4,0.4,0,0,0,0,.575A0.417,0.417,0,0,0,14.75,19.848Z"/>
  <path id="Shape_1_copy" data-name="Shape 1 copy" class="cls-1" d="M77.75,83.848l4.121-4.062a0.4,0.4,0,0,0,0-.574L77.75,75.151a0.416,0.416,0,0,0-.583,0,0.4,0.4,0,0,0,0,.574L81,79.5l-3.829,3.774a0.4,0.4,0,0,0,0,.575A0.417,0.417,0,0,0,77.75,83.848Z"/>
</svg>
