<svg xmlns="http://www.w3.org/2000/svg" width="20" height="20" viewBox="0 0 20 20">
  <defs>
    <style>
      .cls-1 {
        fill: #7b7b7b;
        fill-rule: evenodd;
      }
    </style>
  </defs>
  <g id="folder">
    <path class="cls-1" d="M156.619,6.364h-4.363a0.672,0.672,0,0,1-.3-0.068l-2.109-1.08a1.979,1.979,0,0,0-.9-0.215h-1.69a3.38,3.38,0,0,0-3.341,3.409v8.182A3.38,3.38,0,0,0,147.262,20h9.357a3.38,3.38,0,0,0,3.341-3.409V9.773A3.38,3.38,0,0,0,156.619,6.364Zm-9.357,0h1.822l0.062,0.015,2.224,1.135a1.948,1.948,0,0,0,.886.213h4.363a1.983,1.983,0,0,1,1.407.592,1.645,1.645,0,0,1,.449,1.152c0,0.226,0,.448,0,0.448L145.257,10V8.409A2.026,2.026,0,0,1,147.262,6.364Zm9.357,12.273h-9.357a2.026,2.026,0,0,1-2-2.045V11.36l13.367-.077v5.308A2.026,2.026,0,0,1,156.619,18.636Z" transform="translate(-142 -2)"/>
  </g>
</svg>
